<svg xmlns="http://www.w3.org/2000/svg" width="48" height="48" viewBox="0 0 48 48">
  <path d="M40.084,26.059c-0.082-8.207,6.71-12.159,7.016-12.353c-3.826-5.589-9.77-6.352-11.885-6.426   c-5.039-0.515-9.871,2.983-12.416,2.983c-2.571,0-6.512-2.915-10.707-2.835c-5.492,0.082-10.58,3.214-13.416,8.14   c-5.756,9.977-1.471,24.716,4.105,32.796c2.754,3.964,6.004,8.414,10.277,8.254c4.135-0.167,5.697-2.655,10.697-2.655   c4.971,0,6.404,2.655,10.756,2.565c4.445-0.082,7.256-4.008,9.953-7.994c3.164-4.577,4.447-9.041,4.51-9.27   C49.916,39.241,40.174,36.226,40.084,26.059z M32.916,7.841c2.268-2.775,3.807-6.605,3.389-10.436   c-3.277,0.138-7.256,2.203-9.6,4.947c-2.1,2.446-3.947,6.371-3.457,10.118C26.814,12.712,30.616,10.644,32.916,7.841z"/>
</svg>
